<svg version="1.1" xmlns="http://www.w3.org/2000/svg" xmlns:xlink="http://www.w3.org/1999/xlink" width="277.77778" height="268.76877" viewBox="0,0,277.77778,268.76877"><g transform="translate(-101.11111,-45.61561)"><g stroke="none" stroke-miterlimit="10"><path d="M101.11111,314.38439v-268.76877h277.77778v268.76877z" fill="#292929" stroke-width="0"/><path d="M179.18919,159.72973c-3.73162,0 -6.75676,-3.02514 -6.75676,-6.75676c0,-3.73162 3.02514,-6.75676 6.75676,-6.75676h27.02703v-27.02703c0,-3.73162 3.02513,-6.75676 6.75676,-6.75676c3.73162,0 6.75676,3.02514 6.75676,6.75676v27.02703c0,7.46331 -6.0502,13.51351 -13.51351,13.51351z" fill="#dadada" stroke-width="1"/><path d="M273.78378,159.72973c-7.46351,0 -13.51351,-6.0502 -13.51351,-13.51351v-27.02703c0,-3.73162 3.025,-6.75676 6.75676,-6.75676c3.73176,0 6.75676,3.02514 6.75676,6.75676v27.02703h27.02703c3.73176,0 6.75676,3.02513 6.75676,6.75676c0,3.73162 -3.025,6.75676 -6.75676,6.75676z" fill="#dadada" stroke-width="1"/><path d="M300.81081,200.27027c3.73176,0 6.75676,3.025 6.75676,6.75676c0,3.73176 -3.025,6.75676 -6.75676,6.75676h-27.02703v27.02703c0,3.73176 -3.025,6.75676 -6.75676,6.75676c-3.73176,0 -6.75676,-3.025 -6.75676,-6.75676v-27.02703c0,-7.46351 6.05,-13.51351 13.51351,-13.51351z" fill="#dadada" stroke-width="1"/><path d="M219.72973,240.81081c0,3.73176 -3.02514,6.75676 -6.75676,6.75676c-3.73162,0 -6.75676,-3.025 -6.75676,-6.75676v-27.02703h-27.02703c-3.73162,0 -6.75676,-3.025 -6.75676,-6.75676c0,-3.73176 3.02514,-6.75676 6.75676,-6.75676h27.02703c7.46331,0 13.51351,6.05 13.51351,13.51351z" fill="#dadada" stroke-width="1"/></g></g></svg>