<svg version="1.1" xmlns="http://www.w3.org/2000/svg" xmlns:xlink="http://www.w3.org/1999/xlink" width="283.37322" height="269.30039" viewBox="0,0,283.37322,269.30039"><g transform="translate(-95.51567,-45.084)"><g stroke-miterlimit="10"><path d="M101.11111,314.38439v-268.76877h277.77778v268.76877z" fill-opacity="0.01176" fill="#ffffff" stroke="none" stroke-width="0"/><path d="M217.98247,124.12111c3.73114,-0.05997 6.80451,2.91615 6.86448,6.64729c0.05997,3.73114 -2.91615,6.80451 -6.64729,6.86448l-27.02354,0.43438l0.43438,27.02354c0.05997,3.73114 -2.91614,6.80451 -6.64729,6.86448c-3.73114,0.05997 -6.80451,-2.91615 -6.86448,-6.64729l-0.43438,-27.02354c-0.11995,-7.46235 5.83223,-13.609 13.29457,-13.72895z" fill="#3f9347" stroke="#5f5341" stroke-width="5"/><path d="M285.69075,121.28449c7.46312,-0.07607 13.57448,5.91215 13.65055,13.37507l0.27547,27.02563c0.03803,3.73143 -2.95597,6.78724 -6.68754,6.82528c-3.73157,0.03804 -6.78724,-2.95611 -6.82528,-6.68754l-0.27547,-27.02563l-27.02563,0.27547c-3.73157,0.03804 -6.78724,-2.9561 -6.82528,-6.68754c-0.03803,-3.73143 2.95597,-6.78724 6.68754,-6.82528z" fill="#3f9347" stroke="#5f5341" stroke-width="5"/><path d="M262.09901,235.63577c-3.73164,0.03001 -6.78087,-2.97056 -6.81088,-6.7022c-0.03001,-3.73164 2.97056,-6.78087 6.7022,-6.81088l27.02616,-0.21736l-0.21736,-27.02616c-0.03001,-3.73164 2.97056,-6.78087 6.7022,-6.81088c3.73164,-0.03001 6.78087,2.97056 6.81088,6.7022l0.21736,27.02616c0.06002,7.46327 -5.94112,13.56173 -13.40439,13.62175z" fill="#3f9347" stroke="#5f5341" stroke-width="5"/><path d="M177.47154,198.46805c-0.07908,-3.73092 2.88128,-6.81935 6.61206,-6.89842c3.73078,-0.07908 6.81934,2.88114 6.89842,6.61206l0.57272,27.02096l27.02096,-0.57272c3.73078,-0.07908 6.81934,2.88114 6.89842,6.61206c0.07908,3.73092 -2.88128,6.81935 -6.61206,6.89842l-27.02096,0.57272c-7.46163,0.15815 -13.63868,-5.76228 -13.79684,-13.22411z" fill="#3f9347" stroke="#5f5341" stroke-width="5"/><path d="M95.51567,313.85277v-268.76877h277.77778v268.76877z" fill="none" stroke="none" stroke-width="0"/></g></g></svg>